<svg xmlns="http://www.w3.org/2000/svg" width="1200" height="630" viewBox="0 0 1200 630">
  <rect width="1200" height="630" fill="#0a0d13"/>
  <defs>
    <pattern id="grid" width="34" height="34" patternUnits="userSpaceOnUse">
      <path d="M34 0H0V34" fill="none" stroke="#8ca2c4" stroke-opacity=".1"/>
      <circle r="1" fill="#8ca2c4" fill-opacity=".22"/>
    </pattern>
    <radialGradient id="glow">
      <stop stop-color="#f5a623" stop-opacity=".22"/>
      <stop offset="1" stop-color="#f5a623" stop-opacity="0"/>
    </radialGradient>
  </defs>
  <rect width="1200" height="630" fill="url(#grid)"/>
  <circle cx="900" cy="300" r="300" fill="url(#glow)"/>
  <g transform="translate(850 315) scale(7.6)" fill="none" stroke="#f5a623" stroke-linecap="round">
    <path d="M16 16L27.43 22.6M16 16L16 2.8M16 16L4.57 22.6" stroke-width=".98" opacity=".28"/>
    <path d="M21.72 6.1L10.28 12.7M10.28 6.1L21.72 12.7M27.43 16L16 22.6M21.72 25.9L21.72 12.7M10.28 25.9L10.28 12.7M4.57 16L16 22.6" stroke-width="1.05" opacity=".45"/>
    <path d="M16 2.8L27.43 9.4M27.43 9.4L27.43 22.6M27.43 22.6L16 29.2M16 29.2L4.57 22.6M4.57 22.6L4.57 9.4M4.57 9.4L16 2.8" stroke-width="1.4" opacity=".9"/>
    <path d="M16 16L27.43 9.4M16 16L4.57 9.4M16 16L16 29.2" stroke-width="1.4"/>
    <circle cx="16" cy="16" r="2.51" fill="#f5a623" stroke="none"/>
  </g>
  <text x="92" y="225" fill="#f5a623" font-family="ui-monospace, monospace" font-size="20" letter-spacing="5">THE OPEN INFORMATION STUDIO</text>
  <text x="90" y="326" fill="#e7ecf5" font-family="Georgia, serif" font-size="82">Lattice</text>
  <text x="94" y="390" fill="#b9c2d4" font-family="system-ui, sans-serif" font-size="28">A fast, local-first workspace built from real files.</text>
  <text x="94" y="500" fill="#8791a6" font-family="ui-monospace, monospace" font-size="20">Markdown · SQLite · JSON Canvas · one semantic command core</text>
</svg>
